<svg width="14" height="14" viewBox="0 0 14 14" fill="none" xmlns="http://www.w3.org/2000/svg">
<path d="M2.3035 2.07555C3.21631 1.62766 4.67945 1.09375 6.46615 1.09375C7.6875 1.09375 8.86516 1.38627 9.97688 1.96399C8.40859 2.26039 7.21861 3.64141 7.21861 5.29557C7.21861 6.20103 7.5717 7.04989 8.2128 7.68571C8.85147 8.31916 9.70178 8.66798 10.6071 8.66798C11.5124 8.66798 12.3627 8.31916 13.0014 7.68571C13.6425 7.04989 13.9955 6.20106 13.9955 5.29557C13.9955 4.37956 13.6305 3.54735 13.0385 2.9366C13.0127 2.90609 12.3947 2.18047 11.2806 1.459C9.80669 0.504519 8.14186 0 6.46613 0C4.45212 0 2.80893 0.604597 1.78509 1.11182C0.669414 1.66455 0.0268072 2.22178 0 2.24522L0.718546 3.06944C0.724285 3.06446 1.30407 2.56593 2.3035 2.07555ZM10.6071 7.5742C9.34138 7.5742 8.31167 6.55201 8.31167 5.29557C8.31167 4.02907 9.34138 2.9987 10.6071 2.9987C11.8728 2.9987 12.9025 4.02907 12.9025 5.29557C12.9025 6.55201 11.8728 7.5742 10.6071 7.5742ZM13.2815 10.9305C13.2757 10.9355 12.6959 11.434 11.6965 11.9244C10.7837 12.3723 9.32055 12.9062 7.53385 12.9062C6.31993 12.9062 5.1452 12.6132 4.03151 12.0344C5.59564 11.7346 6.78136 10.3556 6.78136 8.70443C6.78136 7.79897 6.42828 6.95011 5.78717 6.31429C5.1485 5.68084 4.29819 5.33202 3.39289 5.33202C2.4876 5.33202 1.63729 5.68084 0.998614 6.31429C0.357511 6.95011 0.00442687 7.79894 0.00442687 8.70443C0.00442687 9.6025 0.355325 10.42 0.926937 11.0273C0.953061 11.0582 1.5787 11.7922 2.70069 12.5223C4.18642 13.489 5.8577 14 7.53385 14C9.54785 14 11.191 13.3954 12.2149 12.8882C13.3306 12.3355 13.9732 11.7782 14 11.7548L13.2815 10.9305ZM3.39292 6.42577C4.65862 6.42577 5.68834 7.44796 5.68834 8.7044C5.68834 9.97091 4.65862 11.0013 3.39292 11.0013C2.12722 11.0013 1.09751 9.97091 1.09751 8.7044C1.09751 7.44796 2.12722 6.42577 3.39292 6.42577Z" fill="white"/>
</svg>
